<svg width="1413" height="342" viewBox="0 0 1413 342"  fill="none" xmlns="http://www.w3.org/2000/svg">
<g clip-path="url(#clip0_602_25651)">
<path fill-rule="evenodd" clip-rule="evenodd" d="M-118.6 -35.3264C-121.661 -144.187 -50.5559 -252.535 77.7935 -329.438C188.692 -395.885 349.151 -402.268 500.162 -406.069C625.933 -409.235 740.949 -387.823 847.695 -348.819C968.911 -304.528 1095.65 -257.126 1137.89 -173.051C1186.45 -76.3907 1185.93 39.033 1084.07 121.662C983.4 203.328 800.391 202.179 642.388 228.907C455.997 260.436 259.781 346.093 95.181 288.94C-74.5554 230.004 -115.143 87.6387 -118.6 -35.3264Z" fill="#FFF5CE"/>
<path fill-rule="evenodd" clip-rule="evenodd" d="M1591.92 -136.999C1647.94 -62.2077 1649.31 32.1577 1593.18 120.065C1544.67 196.021 1430.15 243.574 1321.29 286.795C1230.62 322.792 1135.7 338.827 1038.15 340.42C927.375 342.23 811.02 343.361 738.513 296.314C655.152 242.225 598.518 161.912 632.398 77.1459C665.883 -6.6313 800.658 -55.0129 903.326 -116.037C1024.44 -188.025 1126.02 -300.251 1274.96 -304.785C1428.55 -309.46 1528.64 -221.481 1591.92 -136.999Z" fill="#FFEB99"/>
</g>
<defs>
<clipPath id="clip0_602_25651">
<rect width="1913" height="342" fill="white"/>
</clipPath>
</defs>
</svg>
