<svg width="424" height="424" viewBox="0 0 424 424" fill="none" xmlns="http://www.w3.org/2000/svg">
<g clip-path="url(#clip0_655_15020)">
<path d="M79.5 212C103.893 212 123.667 192.226 123.667 167.834C123.667 143.441 103.893 123.667 79.5 123.667C55.1074 123.667 35.3333 143.441 35.3333 167.834C35.3333 192.226 55.1074 212 79.5 212Z" fill="#FCD11E"/>
<path d="M159 141.333C183.393 141.333 203.167 121.559 203.167 97.1667C203.167 72.7741 183.393 53 159 53C134.607 53 114.833 72.7741 114.833 97.1667C114.833 121.559 134.607 141.333 159 141.333Z" fill="#FCD11E"/>
<path d="M265 141.333C289.393 141.333 309.167 121.559 309.167 97.1667C309.167 72.7741 289.393 53 265 53C240.607 53 220.833 72.7741 220.833 97.1667C220.833 121.559 240.607 141.333 265 141.333Z" fill="#FCD11E"/>
<path d="M344.5 212C368.893 212 388.667 192.226 388.667 167.834C388.667 143.441 368.893 123.667 344.5 123.667C320.107 123.667 300.333 143.441 300.333 167.834C300.333 192.226 320.107 212 344.5 212Z" fill="#FCD11E"/>
<path d="M306.344 262.527C290.974 244.507 278.078 229.137 262.531 211.117C254.404 201.577 243.981 192.037 231.614 187.797C229.671 187.09 227.728 186.56 225.784 186.207C221.368 185.5 216.598 185.5 212.004 185.5C207.411 185.5 202.641 185.5 198.048 186.383C196.104 186.737 194.161 187.267 192.218 187.973C179.851 192.213 169.604 201.753 161.301 211.293C145.931 229.313 133.034 244.683 117.488 262.703C94.3443 285.847 65.901 311.463 71.201 347.327C76.3243 365.347 89.221 383.19 112.364 388.313C125.261 390.963 166.424 380.54 210.238 380.54H213.418C257.231 380.54 298.394 390.787 311.291 388.313C334.434 383.19 347.331 365.17 352.454 347.327C357.931 311.287 329.488 285.67 306.344 262.527Z" fill="#FCD11E"/>
<path d="M259.514 383.495C261.843 378.701 264.041 374.527 266.11 370.974C268.108 367.535 269.467 365.369 270.185 364.476C270.973 363.492 271.712 363.002 272.403 363.006C272.771 363.008 273.103 363.16 273.401 363.46C273.675 363.761 273.811 364.084 273.809 364.429C273.806 364.958 273.409 365.841 272.62 367.079C269.253 372.442 266.161 377.887 263.345 383.414C260.086 389.859 258.447 394.692 258.428 397.912C258.42 399.223 258.667 400.26 259.169 401.022C259.26 401.183 259.672 401.554 260.404 402.133C260.542 402.249 260.609 402.48 260.607 402.825C260.604 403.285 260.418 403.709 260.048 404.098C259.7 404.464 259.308 404.646 258.871 404.643C258.342 404.64 257.757 404.315 257.117 403.667C256.202 402.741 255.657 401.68 255.48 400.482C255.414 399.976 255.339 399.032 255.255 397.652C252.814 401.985 250.501 404.145 248.315 404.132C247.05 404.125 246.042 403.406 245.292 401.975C244.791 401.029 244.544 399.958 244.552 398.761C244.573 395.173 245.905 391.569 248.549 387.95C251.17 384.377 253.975 382.6 256.966 382.617C257.794 382.622 258.643 382.915 259.514 383.495ZM258.324 386.317C257.705 385.9 257.166 385.689 256.706 385.687C254.774 385.675 252.938 386.849 251.199 389.208C248.903 392.277 247.747 395.249 247.73 398.125C247.728 398.47 247.795 398.792 247.931 399.092C248.204 399.669 248.616 399.959 249.168 399.962C249.973 399.967 250.956 399.19 252.115 397.633C253.669 395.572 255.109 393.131 256.437 390.309C256.903 389.346 257.357 388.382 257.8 387.419C257.8 387.419 257.905 387.201 258.114 386.765L258.324 386.317ZM277.434 381.496C279.321 381.507 280.257 382.663 280.243 384.964C280.225 388.023 278.788 391.891 275.93 396.566C272.818 401.632 269.824 404.156 266.949 404.139C265.614 404.131 264.64 403.504 264.027 402.258C263.708 401.635 263.552 400.887 263.557 400.013C263.574 397.068 264.605 393.877 266.65 390.438C268.555 387.252 270.79 384.781 273.354 383.025C274.855 381.999 276.215 381.489 277.434 381.496ZM273.769 394.518C273.196 394.054 272.911 393.696 272.912 393.443C272.913 393.259 273.284 392.755 274.026 391.931C276.11 389.62 277.156 387.752 277.164 386.326C277.165 386.141 277.109 385.957 276.995 385.772C276.813 385.426 276.526 385.252 276.135 385.25C275.399 385.245 274.314 385.952 272.879 387.37C271.028 389.199 269.614 391.089 268.636 393.038C267.496 395.263 266.921 397.111 266.912 398.583C266.91 398.974 267.012 399.32 267.217 399.62C267.513 400.036 267.892 400.245 268.352 400.248C269.456 400.255 270.645 399.434 271.92 397.785C272.477 397.098 272.929 396.388 273.279 395.654C273.628 394.92 273.792 394.541 273.769 394.518ZM290.742 400.864C293.214 399.084 295.053 397.462 296.258 395.997C298.042 393.868 299.306 392.139 300.05 390.809C300.421 390.213 300.802 389.916 301.194 389.918C301.746 389.922 302.02 390.188 302.017 390.717C302.013 391.338 301.57 392.371 300.687 393.815C297.947 398.215 293.852 402.044 288.404 405.301C285.843 410.577 283.958 414.154 282.751 416.034C279.547 420.983 276.542 423.45 273.735 423.433C272.263 423.425 271.208 422.843 270.571 421.689C270.207 421.02 270.028 420.26 270.033 419.409C270.054 415.797 272.398 412.349 277.064 409.064C277.803 408.517 280.793 406.809 286.031 403.941C287.056 401.808 287.848 400.134 288.408 398.918C285.977 401.434 283.968 402.687 282.381 402.678C281.392 402.672 280.625 402.161 280.078 401.146C279.737 400.477 279.569 399.786 279.573 399.072C279.583 397.416 280.274 395.292 281.647 392.701C283.601 388.963 285.942 386.009 288.669 383.84C290.957 382.036 292.976 381.14 294.724 381.15C295.621 381.155 296.39 381.494 297.03 382.164C297.464 382.604 297.679 383.249 297.674 384.101C297.668 385.159 297.303 386.468 296.581 388.028C297.107 388.537 297.369 388.918 297.368 389.171C297.367 389.332 297.25 389.562 297.019 389.859C296.393 390.707 295.382 392.299 293.988 394.638C292.757 396.678 291.675 398.753 290.742 400.864ZM290.548 392.892C290.228 392.545 290.069 392.302 290.069 392.164C290.071 391.957 290.245 391.694 290.592 391.374C291.748 390.277 292.687 389.132 293.407 387.94C293.988 387 294.279 386.266 294.283 385.737C294.286 385.116 294.001 384.803 293.426 384.8C292.436 384.794 291.016 385.729 289.165 387.604C286.966 389.823 285.249 392.308 284.014 395.062C283.407 396.438 283.102 397.495 283.098 398.231C283.095 398.645 283.185 398.956 283.368 399.164C283.551 399.372 283.815 399.477 284.16 399.479C284.965 399.484 286.097 398.662 287.556 397.015C288.483 395.962 289.271 394.932 289.921 393.923C290.362 393.259 290.571 392.915 290.548 392.892ZM283.937 407.932C280.893 409.202 278.202 411.141 275.863 413.75C274.775 414.963 273.996 416.246 273.528 417.601C273.388 418.014 273.317 418.359 273.315 418.635C273.313 418.934 273.381 419.199 273.518 419.429C273.768 419.845 274.123 420.054 274.584 420.057C276.01 420.065 277.686 418.546 279.614 415.497C281.286 412.862 282.727 410.34 283.937 407.932ZM331.739 394.447C329.745 397.104 328.273 398.935 327.324 399.942C326.143 401.2 325.126 402.16 324.27 402.822C323.3 403.53 322.401 403.881 321.573 403.876C320.768 403.871 320.149 403.465 319.717 402.657C319.375 402.034 319.207 401.343 319.211 400.584C319.226 398.077 320.742 394.635 323.758 390.259C326.496 386.296 328.521 384.318 329.832 384.326C330.154 384.328 330.464 384.479 330.761 384.78C331.035 385.057 331.171 385.38 331.169 385.748C331.166 386.254 330.714 386.953 329.811 387.845C327.891 389.72 326.222 391.838 324.805 394.199C323.596 396.216 322.991 397.535 322.987 398.156C322.984 398.616 323.19 398.848 323.604 398.85C324.984 398.858 327.992 395.886 332.628 389.932C334.135 388.009 335.05 386.898 335.374 386.601C335.975 386.053 336.586 385.78 337.208 385.784C337.622 385.786 337.977 385.904 338.275 386.135C338.527 386.367 338.652 386.609 338.65 386.862C338.649 387.138 338.09 388.297 336.974 390.337C334.44 394.739 333.169 397.711 333.16 399.252C333.156 399.85 333.396 400.15 333.879 400.153C334.707 400.158 335.851 399.21 337.312 397.31C338.703 395.524 339.993 393.254 341.182 390.5C341.695 389.307 342.153 387.734 342.556 385.781C343.029 383.553 343.956 382.442 345.336 382.451C346.118 382.455 346.507 382.895 346.502 383.769C346.484 386.782 344.78 390.913 341.39 396.161C337.861 401.638 334.901 404.369 332.508 404.355C330.737 404.344 329.858 403.246 329.871 401.061C329.881 399.267 330.504 397.062 331.739 394.447ZM356.559 398.528C355.792 399.857 355.038 400.98 354.296 401.896C352.836 403.682 351.393 404.57 349.967 404.562C348.725 404.554 347.762 403.962 347.079 402.785C346.646 402.023 346.433 401.125 346.439 400.09C346.455 397.536 347.276 394.723 348.905 391.65C350.719 388.233 352.897 385.612 355.438 383.787C357.102 382.601 358.704 382.012 360.245 382.021C361.211 382.027 362.015 382.331 362.655 382.933C363.204 383.465 363.477 384.065 363.473 384.732C363.47 385.238 363.27 385.938 362.874 386.833C363.216 387.318 363.386 387.745 363.384 388.113C363.381 388.596 363.054 389.388 362.403 390.488C361.73 391.611 361.054 393.102 360.376 394.962C359.651 396.936 359.285 398.521 359.278 399.717C359.272 400.683 359.555 401.479 360.126 402.103C360.286 402.265 360.756 402.532 361.536 402.905C362.11 403.184 362.394 403.669 362.39 404.359C362.388 404.796 362.225 405.152 361.901 405.426C361.554 405.723 361.151 405.87 360.691 405.867C359.448 405.86 358.382 405.302 357.491 404.192C356.761 403.291 356.399 402.161 356.407 400.804C356.41 400.344 356.461 399.585 356.559 398.528ZM360.939 387.201C360.666 386.694 360.369 386.324 360.049 386.092C359.728 385.837 359.384 385.708 359.016 385.706C357.267 385.696 355.361 387.214 353.295 390.262C351.021 393.63 349.877 396.487 349.863 398.833C349.86 399.408 349.96 399.846 350.166 400.146C350.394 400.447 350.727 400.598 351.164 400.601C352.268 400.607 353.563 399.442 355.049 397.104C355.885 395.821 356.92 393.929 358.154 391.429C358.968 389.801 359.561 388.723 359.933 388.196C360.118 387.921 360.454 387.59 360.939 387.201ZM370.395 392.847C369.694 394.637 369.168 396.084 368.816 397.186C368.465 398.288 368.288 399.057 368.285 399.494C368.282 400.069 368.556 400.359 369.108 400.362C369.936 400.367 371.01 399.591 372.331 398.035C372.957 397.279 373.885 395.916 375.116 393.945C375.603 393.166 376.112 392.778 376.641 392.781C377.239 392.784 377.536 393.074 377.533 393.649C377.527 394.638 376.376 396.632 374.081 399.632C371.693 402.77 369.487 404.332 367.463 404.32C366.589 404.315 365.878 403.943 365.33 403.204C364.942 402.672 364.751 402.027 364.755 401.268C364.763 399.98 365.164 398.199 365.96 395.927C366.755 393.654 367.934 390.889 369.494 387.632C373.5 379.351 377.577 372.531 381.727 367.173C385.042 362.868 387.781 360.722 389.943 360.735C390.633 360.739 391.195 361.007 391.629 361.538C392.086 362.07 392.312 362.681 392.308 363.371C392.289 366.592 389.382 371.934 383.587 379.399C380.991 382.719 377.888 386.036 374.28 389.351C373.332 390.219 372.037 391.385 370.395 392.847ZM372.877 387.376C377.686 383.309 381.995 378.159 385.805 371.925C387.779 368.693 388.77 366.548 388.776 365.49C388.779 364.983 388.562 364.729 388.125 364.727C386.86 364.719 384.544 367.224 381.179 372.242C378.394 376.366 375.627 381.411 372.877 387.376ZM394.085 389.675C392.567 393.37 391.803 396.183 391.792 398.115C391.786 399.059 391.966 399.842 392.33 400.465C392.785 401.25 393.393 401.644 394.152 401.649C395.716 401.658 397.528 400.622 399.588 398.541C400.953 397.215 402.099 395.865 403.028 394.49C403.631 393.573 404.197 393.117 404.727 393.12C405.256 393.123 405.519 393.389 405.515 393.918C405.51 394.792 404.441 396.58 402.309 399.282C399.157 403.289 396.109 405.284 393.164 405.266C391.393 405.256 390.144 404.386 389.418 402.656C388.874 401.388 388.606 400.052 388.614 398.649C388.621 397.475 388.907 395.74 389.473 393.443C387.97 394.677 385.687 397.7 382.622 402.512C381.809 403.819 381.069 404.47 380.402 404.466C380.057 404.464 379.759 404.313 379.507 404.012C379.256 403.689 379.132 403.366 379.133 403.044C379.139 402.124 380.365 399.06 382.811 393.852C387.121 384.745 391.721 377.089 396.611 370.884C399.254 367.495 401.626 365.025 403.729 363.473C405.624 362.058 407.135 361.354 408.262 361.361C408.768 361.364 409.215 361.573 409.604 361.99C410.107 362.499 410.356 363.121 410.352 363.858C410.34 365.813 409.302 368.314 407.236 371.361C405.078 374.5 401.421 378.286 396.265 382.718C393.375 385.185 390.776 387.125 388.467 388.538C388.164 389.134 387.314 390.877 385.917 393.767C388.811 390.679 391.101 388.553 392.787 387.39C393.872 386.66 395.338 385.898 397.183 385.104C398.428 384.582 399.327 384.323 399.879 384.326C400.178 384.328 400.442 384.445 400.67 384.676C400.922 384.885 401.047 385.162 401.045 385.507C401.04 386.266 400.52 386.792 399.483 387.085C397.731 387.603 395.932 388.467 394.085 389.675ZM391.152 383.723C394.94 381.261 398.478 378.119 401.767 374.296C403.412 372.397 404.734 370.564 405.733 368.799C406.431 367.561 406.781 366.677 406.784 366.148C406.787 365.619 406.547 365.353 406.064 365.35C404.776 365.343 402.545 367.308 399.37 371.246C396.751 374.52 394.012 378.679 391.152 383.723Z" fill="black"/>
</g>
<g filter="url(#filter0_d_655_15020)">
<mask id="path-7-outside-1_655_15020" maskUnits="userSpaceOnUse" x="31.2666" y="203.601" width="355" height="137" fill="black">
<rect fill="white" x="31.2666" y="203.601" width="355" height="137"/>
<path d="M50.145 210.114L81.521 210.284C97.9156 210.284 112.332 216.22 124.769 228.092C137.206 239.851 143.425 254.38 143.425 271.679C143.425 288.865 137.319 303.62 125.108 315.945C113.01 328.269 98.3114 334.431 81.0122 334.431H49.9754C43.0783 334.431 38.7818 333.018 37.0858 330.191C35.729 327.817 35.0506 324.198 35.0506 319.337V225.039C35.0506 222.325 35.1071 220.347 35.2202 219.103C35.4463 217.859 36.0116 216.389 36.9162 214.693C38.4991 211.641 42.9087 210.114 50.145 210.114ZM81.521 304.412C89.6618 304.412 97.0111 301.416 103.569 295.423C110.127 289.317 113.406 281.685 113.406 272.527C113.406 263.369 110.183 255.737 103.739 249.631C97.4068 243.412 89.9444 240.303 81.3514 240.303H65.0698V304.412H81.521ZM212.809 208.757C229.542 208.757 244.072 214.806 256.396 226.905C268.72 239.003 274.882 254.041 274.882 272.018C274.882 289.883 269.003 305.147 257.244 317.81C245.485 330.361 231.012 336.636 213.826 336.636C196.64 336.636 181.998 330.417 169.9 317.98C157.915 305.542 151.922 290.731 151.922 273.545C151.922 264.16 153.618 255.397 157.01 247.257C160.402 239.003 164.925 232.106 170.578 226.565C176.232 221.025 182.733 216.672 190.082 213.506C197.432 210.34 205.007 208.757 212.809 208.757ZM181.941 272.697C181.941 282.76 185.164 290.957 191.609 297.289C198.166 303.507 205.459 306.617 213.487 306.617C221.515 306.617 228.751 303.564 235.196 297.458C241.641 291.353 244.863 283.155 244.863 272.866C244.863 262.577 241.584 254.323 235.026 248.105C228.581 241.886 221.345 238.777 213.317 238.777C205.29 238.777 198.053 241.942 191.609 248.274C185.164 254.493 181.941 262.634 181.941 272.697ZM339.227 272.188C356.526 288.809 368.794 301.302 376.03 309.669C379.761 313.853 381.627 317.414 381.627 320.354C381.627 323.181 379.365 326.573 374.843 330.53C370.32 334.374 366.589 336.297 363.649 336.297C360.823 336.297 357.374 333.922 353.304 329.173L315.992 286.604V319.676C315.992 322.389 315.879 324.368 315.652 325.612C315.539 326.856 315.031 328.325 314.126 330.021C312.543 333.074 308.133 334.601 300.897 334.601C292.983 334.601 288.347 332.452 286.99 328.156C286.312 326.347 285.972 323.464 285.972 319.506V225.209C285.972 222.608 286.029 220.686 286.142 219.442C286.368 218.085 286.933 216.559 287.838 214.863C289.421 211.81 293.831 210.284 301.067 210.284C308.981 210.284 313.674 212.376 315.144 216.559C315.709 218.481 315.992 221.421 315.992 225.378V257.772C331.369 240.473 343.806 226.283 353.304 215.202C357.261 210.566 360.709 208.249 363.649 208.249C366.589 208.249 370.32 210.227 374.843 214.185C379.365 218.029 381.627 221.421 381.627 224.361C381.627 227.187 379.931 230.579 376.539 234.537C369.981 242.112 359.805 252.514 346.011 265.743L339.227 272.188Z"/>
</mask>
<path d="M50.145 210.114L81.521 210.284C97.9156 210.284 112.332 216.22 124.769 228.092C137.206 239.851 143.425 254.38 143.425 271.679C143.425 288.865 137.319 303.62 125.108 315.945C113.01 328.269 98.3114 334.431 81.0122 334.431H49.9754C43.0783 334.431 38.7818 333.018 37.0858 330.191C35.729 327.817 35.0506 324.198 35.0506 319.337V225.039C35.0506 222.325 35.1071 220.347 35.2202 219.103C35.4463 217.859 36.0116 216.389 36.9162 214.693C38.4991 211.641 42.9087 210.114 50.145 210.114ZM81.521 304.412C89.6618 304.412 97.0111 301.416 103.569 295.423C110.127 289.317 113.406 281.685 113.406 272.527C113.406 263.369 110.183 255.737 103.739 249.631C97.4068 243.412 89.9444 240.303 81.3514 240.303H65.0698V304.412H81.521ZM212.809 208.757C229.542 208.757 244.072 214.806 256.396 226.905C268.72 239.003 274.882 254.041 274.882 272.018C274.882 289.883 269.003 305.147 257.244 317.81C245.485 330.361 231.012 336.636 213.826 336.636C196.64 336.636 181.998 330.417 169.9 317.98C157.915 305.542 151.922 290.731 151.922 273.545C151.922 264.16 153.618 255.397 157.01 247.257C160.402 239.003 164.925 232.106 170.578 226.565C176.232 221.025 182.733 216.672 190.082 213.506C197.432 210.34 205.007 208.757 212.809 208.757ZM181.941 272.697C181.941 282.76 185.164 290.957 191.609 297.289C198.166 303.507 205.459 306.617 213.487 306.617C221.515 306.617 228.751 303.564 235.196 297.458C241.641 291.353 244.863 283.155 244.863 272.866C244.863 262.577 241.584 254.323 235.026 248.105C228.581 241.886 221.345 238.777 213.317 238.777C205.29 238.777 198.053 241.942 191.609 248.274C185.164 254.493 181.941 262.634 181.941 272.697ZM339.227 272.188C356.526 288.809 368.794 301.302 376.03 309.669C379.761 313.853 381.627 317.414 381.627 320.354C381.627 323.181 379.365 326.573 374.843 330.53C370.32 334.374 366.589 336.297 363.649 336.297C360.823 336.297 357.374 333.922 353.304 329.173L315.992 286.604V319.676C315.992 322.389 315.879 324.368 315.652 325.612C315.539 326.856 315.031 328.325 314.126 330.021C312.543 333.074 308.133 334.601 300.897 334.601C292.983 334.601 288.347 332.452 286.99 328.156C286.312 326.347 285.972 323.464 285.972 319.506V225.209C285.972 222.608 286.029 220.686 286.142 219.442C286.368 218.085 286.933 216.559 287.838 214.863C289.421 211.81 293.831 210.284 301.067 210.284C308.981 210.284 313.674 212.376 315.144 216.559C315.709 218.481 315.992 221.421 315.992 225.378V257.772C331.369 240.473 343.806 226.283 353.304 215.202C357.261 210.566 360.709 208.249 363.649 208.249C366.589 208.249 370.32 210.227 374.843 214.185C379.365 218.029 381.627 221.421 381.627 224.361C381.627 227.187 379.931 230.579 376.539 234.537C369.981 242.112 359.805 252.514 346.011 265.743L339.227 272.188Z" fill="#FFFEFA"/>
<path d="M50.145 210.114L50.1651 206.395L50.155 206.395H50.145V210.114ZM81.521 210.284L81.5009 214.003L81.5109 214.003H81.521V210.284ZM124.769 228.092L122.201 230.782L122.207 230.788L122.214 230.794L124.769 228.092ZM125.108 315.945L122.466 313.327L122.46 313.333L122.454 313.339L125.108 315.945ZM37.0858 330.191L33.8565 332.036L33.8761 332.071L33.8965 332.105L37.0858 330.191ZM35.2202 219.103L31.5609 218.438L31.5312 218.601L31.5161 218.766L35.2202 219.103ZM36.9162 214.693L40.1979 216.444L40.2081 216.425L40.218 216.405L36.9162 214.693ZM103.569 295.423L106.078 298.169L106.091 298.157L106.103 298.145L103.569 295.423ZM103.739 249.631L101.132 252.285L101.156 252.308L101.181 252.331L103.739 249.631ZM65.0698 240.303V236.584H61.3505V240.303H65.0698ZM65.0698 304.412H61.3505V308.131H65.0698V304.412ZM50.1249 213.833L81.5009 214.003L81.5411 206.565L50.1651 206.395L50.1249 213.833ZM81.521 214.003C96.9088 214.003 110.418 219.535 122.201 230.782L127.337 225.401C114.245 212.905 98.9224 206.564 81.521 206.564V214.003ZM122.214 230.794C133.899 241.842 139.706 255.39 139.706 271.679H147.144C147.144 253.37 140.514 237.859 127.324 225.389L122.214 230.794ZM139.706 271.679C139.706 287.874 133.995 301.692 122.466 313.327L127.75 318.562C140.644 305.549 147.144 289.856 147.144 271.679H139.706ZM122.454 313.339C111.057 324.95 97.3149 330.712 81.0122 330.712V338.15C99.3078 338.15 114.963 331.588 127.762 318.55L122.454 313.339ZM81.0122 330.712H49.9754V338.15H81.0122V330.712ZM49.9754 330.712C46.7371 330.712 44.3732 330.374 42.7424 329.838C41.1264 329.306 40.5174 328.681 40.275 328.277L33.8965 332.105C35.3501 334.527 37.7374 336.022 40.418 336.904C43.0836 337.781 46.3166 338.15 49.9754 338.15V330.712ZM40.315 328.346C39.4417 326.817 38.7699 323.985 38.7699 319.337H31.3313C31.3313 324.412 32.0162 328.816 33.8565 332.036L40.315 328.346ZM38.7699 319.337V225.039H31.3313V319.337H38.7699ZM38.7699 225.039C38.7699 222.339 38.8274 220.504 38.9242 219.44L31.5161 218.766C31.3868 220.19 31.3313 222.312 31.3313 225.039H38.7699ZM38.8795 219.768C39.0107 219.046 39.3906 217.957 40.1979 216.444L33.6344 212.943C32.6327 214.821 31.8819 216.672 31.5609 218.438L38.8795 219.768ZM40.218 216.405C40.4339 215.989 40.9954 215.339 42.6272 214.774C44.2868 214.199 46.7388 213.833 50.145 213.833V206.395C46.3149 206.395 42.9439 206.792 40.1939 207.744C37.4162 208.706 34.9814 210.345 33.6143 212.981L40.218 216.405ZM81.521 308.131C90.6784 308.131 98.9025 304.725 106.078 298.169L101.06 292.677C95.1197 298.106 88.6452 300.692 81.521 300.692V308.131ZM106.103 298.145C113.436 291.318 117.125 282.692 117.125 272.527H109.686C109.686 280.679 106.818 287.316 101.035 292.701L106.103 298.145ZM117.125 272.527C117.125 262.384 113.509 253.764 106.296 246.931L101.181 252.331C106.858 257.71 109.686 264.353 109.686 272.527H117.125ZM106.345 246.977C99.3429 240.101 90.9543 236.584 81.3514 236.584V244.022C88.9346 244.022 95.4708 246.724 101.132 252.285L106.345 246.977ZM81.3514 236.584H65.0698V244.022H81.3514V236.584ZM61.3505 240.303V304.412H68.7891V240.303H61.3505ZM65.0698 308.131H81.521V300.692H65.0698V308.131ZM256.396 226.905L259.001 224.25L259.001 224.25L256.396 226.905ZM257.244 317.81L259.958 320.353L259.964 320.347L259.969 320.341L257.244 317.81ZM169.9 317.98L167.222 320.561L167.228 320.567L167.234 320.573L169.9 317.98ZM157.01 247.257L160.443 248.687L160.447 248.679L160.45 248.67L157.01 247.257ZM170.578 226.565L173.181 229.222L173.181 229.222L170.578 226.565ZM190.082 213.506L188.611 210.09L188.611 210.09L190.082 213.506ZM191.609 297.289L189.002 299.942L189.025 299.965L189.049 299.987L191.609 297.289ZM235.196 297.458L237.754 300.158L237.754 300.158L235.196 297.458ZM235.026 248.105L232.444 250.781L232.455 250.792L232.467 250.803L235.026 248.105ZM191.609 248.274L194.191 250.951L194.203 250.939L194.215 250.927L191.609 248.274ZM212.809 212.477C228.534 212.477 242.137 218.119 253.79 229.559L259.001 224.25C246.006 211.494 230.551 205.038 212.809 205.038V212.477ZM253.79 229.559C265.37 240.926 271.163 254.993 271.163 272.018H278.601C278.601 253.088 272.07 237.079 259.001 224.25L253.79 229.559ZM271.163 272.018C271.163 288.979 265.615 303.329 254.518 315.279L259.969 320.341C272.39 306.964 278.601 290.786 278.601 272.018H271.163ZM254.53 315.267C243.473 327.068 229.983 332.916 213.826 332.916V340.355C232.042 340.355 247.496 333.653 259.958 320.353L254.53 315.267ZM213.826 332.916C197.655 332.916 183.971 327.112 172.566 315.386L167.234 320.573C180.025 333.723 195.625 340.355 213.826 340.355V332.916ZM172.578 315.399C161.257 303.651 155.641 289.763 155.641 273.545H148.203C148.203 291.699 154.572 307.434 167.222 320.561L172.578 315.399ZM155.641 273.545C155.641 264.619 157.252 256.346 160.443 248.687L153.577 245.826C149.984 254.449 148.203 263.701 148.203 273.545H155.641ZM160.45 248.67C163.675 240.824 167.932 234.367 173.181 229.222L167.975 223.909C161.918 229.845 157.129 237.182 153.57 245.843L160.45 248.67ZM173.181 229.222C178.504 224.006 184.62 219.909 191.554 216.922L188.611 210.09C180.845 213.435 173.959 218.044 167.975 223.909L173.181 229.222ZM191.554 216.922C198.45 213.951 205.526 212.477 212.809 212.477V205.038C204.488 205.038 196.413 206.73 188.611 210.09L191.554 216.922ZM178.222 272.697C178.222 283.633 181.761 292.828 189.002 299.942L194.215 294.635C188.566 289.086 185.661 281.886 185.661 272.697H178.222ZM189.049 299.987C196.204 306.772 204.385 310.336 213.487 310.336V302.897C206.534 302.897 200.129 300.242 194.168 294.59L189.049 299.987ZM213.487 310.336C222.571 310.336 230.698 306.843 237.754 300.158L232.638 294.758C226.804 300.285 220.459 302.897 213.487 302.897V310.336ZM237.754 300.158C245.059 293.237 248.582 283.999 248.582 272.866H241.144C241.144 282.311 238.222 289.468 232.638 294.758L237.754 300.158ZM248.582 272.866C248.582 261.712 244.989 252.427 237.585 245.406L232.467 250.803C238.179 256.22 241.144 263.443 241.144 272.866H248.582ZM237.609 245.428C230.558 238.625 222.423 235.057 213.317 235.057V242.496C220.267 242.496 226.605 245.147 232.444 250.781L237.609 245.428ZM213.317 235.057C204.189 235.057 196.047 238.699 189.002 245.621L194.215 250.927C200.059 245.186 206.39 242.496 213.317 242.496V235.057ZM189.026 245.598C181.762 252.607 178.222 261.761 178.222 272.697H185.661C185.661 263.506 188.566 256.379 194.191 250.951L189.026 245.598ZM339.227 272.188L336.665 269.491L333.843 272.173L336.65 274.87L339.227 272.188ZM376.03 309.669L373.217 312.102L373.235 312.124L373.254 312.145L376.03 309.669ZM374.843 330.53L377.252 333.364L377.272 333.347L377.292 333.329L374.843 330.53ZM353.304 329.173L356.128 326.753L356.114 326.737L356.101 326.722L353.304 329.173ZM315.992 286.604L318.789 284.152L312.272 276.718V286.604H315.992ZM315.652 325.612L311.993 324.946L311.963 325.11L311.948 325.275L315.652 325.612ZM314.126 330.021L310.844 328.271L310.834 328.29L310.824 328.309L314.126 330.021ZM286.99 328.156L290.537 327.036L290.507 326.942L290.473 326.85L286.99 328.156ZM286.142 219.442L282.473 218.831L282.451 218.967L282.438 219.105L286.142 219.442ZM287.838 214.863L291.12 216.613L291.13 216.594L291.14 216.575L287.838 214.863ZM315.144 216.559L318.712 215.51L318.685 215.417L318.653 215.326L315.144 216.559ZM315.992 257.772H312.272V267.554L318.771 260.243L315.992 257.772ZM353.304 215.202L356.128 217.623L356.132 217.617L353.304 215.202ZM374.843 214.185L372.394 216.984L372.414 217.001L372.434 217.018L374.843 214.185ZM376.539 234.537L379.351 236.971L379.357 236.964L379.363 236.957L376.539 234.537ZM346.011 265.743L348.572 268.439L348.579 268.433L348.585 268.427L346.011 265.743ZM336.65 274.87C353.939 291.481 366.101 303.874 373.217 312.102L378.843 307.236C371.487 298.731 359.113 286.137 341.804 269.506L336.65 274.87ZM373.254 312.145C376.86 316.187 377.908 318.857 377.908 320.354H385.346C385.346 315.972 382.663 311.518 378.806 307.194L373.254 312.145ZM377.908 320.354C377.908 320.775 377.731 321.613 376.836 322.955C375.951 324.283 374.513 325.876 372.394 327.731L377.292 333.329C379.695 331.227 381.649 329.146 383.025 327.081C384.392 325.032 385.346 322.76 385.346 320.354H377.908ZM372.434 327.696C368.005 331.461 365.165 332.577 363.649 332.577V340.016C368.013 340.016 372.636 337.288 377.252 333.364L372.434 327.696ZM363.649 332.577C363.272 332.577 362.438 332.407 361.052 331.452C359.689 330.514 358.046 328.991 356.128 326.753L350.48 331.594C352.632 334.105 354.749 336.144 356.834 337.579C358.896 338.999 361.2 340.016 363.649 340.016V332.577ZM356.101 326.722L318.789 284.152L313.195 289.055L350.507 331.625L356.101 326.722ZM312.272 286.604V319.676H319.711V286.604H312.272ZM312.272 319.676C312.272 322.36 312.155 324.054 311.993 324.946L319.312 326.277C319.602 324.682 319.711 322.419 319.711 319.676H312.272ZM311.948 325.275C311.898 325.831 311.628 326.801 310.844 328.271L317.408 331.772C318.433 329.849 319.181 327.88 319.356 325.949L311.948 325.275ZM310.824 328.309C310.608 328.726 310.047 329.376 308.415 329.941C306.755 330.516 304.303 330.881 300.897 330.881V338.32C304.727 338.32 308.098 337.922 310.848 336.97C313.626 336.009 316.061 334.37 317.428 331.733L310.824 328.309ZM300.897 330.881C293.228 330.881 291.089 328.786 290.537 327.036L283.443 329.276C285.604 336.119 292.737 338.32 300.897 338.32V330.881ZM290.473 326.85C290.042 325.702 289.692 323.385 289.692 319.506H282.253C282.253 323.542 282.581 326.992 283.508 329.462L290.473 326.85ZM289.692 319.506V225.209H282.253V319.506H289.692ZM289.692 225.209C289.692 222.628 289.749 220.846 289.846 219.779L282.438 219.105C282.309 220.526 282.253 222.589 282.253 225.209H289.692ZM289.811 220.054C289.95 219.218 290.336 218.084 291.12 216.613L284.556 213.113C283.531 215.034 282.786 216.952 282.473 218.831L289.811 220.054ZM291.14 216.575C291.356 216.159 291.917 215.508 293.549 214.943C295.209 214.369 297.661 214.003 301.067 214.003V206.564C297.237 206.564 293.866 206.962 291.116 207.914C288.338 208.875 285.903 210.515 284.536 213.151L291.14 216.575ZM301.067 214.003C308.759 214.003 311.028 216.064 311.635 217.792L318.653 215.326C316.32 208.687 309.204 206.564 301.067 206.564V214.003ZM311.575 217.608C311.985 219 312.272 221.501 312.272 225.378H319.711C319.711 221.341 319.433 217.962 318.712 215.51L311.575 217.608ZM312.272 225.378V257.772H319.711V225.378H312.272ZM318.771 260.243C334.156 242.935 346.61 228.727 356.128 217.623L350.48 212.782C341.002 223.838 328.581 238.01 313.212 255.301L318.771 260.243ZM356.132 217.617C357.984 215.448 359.587 213.979 360.933 213.074C362.287 212.163 363.166 211.968 363.649 211.968V204.529C361.193 204.529 358.877 205.493 356.783 206.9C354.681 208.313 352.581 210.32 350.475 212.787L356.132 217.617ZM363.649 211.968C365.127 211.968 367.952 213.097 372.394 216.984L377.292 211.386C372.688 207.357 368.051 204.529 363.649 204.529V211.968ZM372.434 217.018C374.54 218.809 375.963 220.365 376.836 221.675C377.712 222.988 377.908 223.858 377.908 224.361H385.346C385.346 221.923 384.411 219.627 383.025 217.549C381.638 215.467 379.668 213.405 377.252 211.351L372.434 217.018ZM377.908 224.361C377.908 225.808 376.96 228.33 373.715 232.116L379.363 236.957C382.901 232.829 385.346 228.567 385.346 224.361H377.908ZM373.727 232.102C367.284 239.545 357.208 249.852 343.436 263.059L348.585 268.427C362.402 255.176 372.678 244.679 379.351 236.971L373.727 232.102ZM343.449 263.047L336.665 269.491L341.788 274.884L348.572 268.439L343.449 263.047Z" fill="#96CEF2" mask="url(#path-7-outside-1_655_15020)"/>
</g>
<defs>
<filter id="filter0_d_655_15020" x="35.0506" y="208.249" width="360.71" height="135.453" filterUnits="userSpaceOnUse" color-interpolation-filters="sRGB">
<feFlood flood-opacity="0" result="BackgroundImageFix"/>
<feColorMatrix in="SourceAlpha" type="matrix" values="0 0 0 0 0 0 0 0 0 0 0 0 0 0 0 0 0 0 127 0" result="hardAlpha"/>
<feOffset dx="14.1333" dy="7.06667"/>
<feComposite in2="hardAlpha" operator="out"/>
<feColorMatrix type="matrix" values="0 0 0 0 0.382595 0 0 0 0 0.666222 0 0 0 0 0.854167 0 0 0 1 0"/>
<feBlend mode="normal" in2="BackgroundImageFix" result="effect1_dropShadow_655_15020"/>
<feBlend mode="normal" in="SourceGraphic" in2="effect1_dropShadow_655_15020" result="shape"/>
</filter>
<clipPath id="clip0_655_15020">
<rect width="424" height="424" fill="white"/>
</clipPath>
</defs>
</svg>
