<svg width="60" height="60" viewBox="0 0 60 60" fill="none" xmlns="http://www.w3.org/2000/svg">
<path d="M47.5 12.5L34 26M47.5 12.5H35M47.5 12.5V25M12.5 35C12.5 38.3152 13.817 41.4946 16.1612 43.8388C18.5054 46.183 21.6848 47.5 25 47.5C28.3152 47.5 31.4946 46.183 33.8388 43.8388C36.183 41.4946 37.5 38.3152 37.5 35C37.5 31.6848 36.183 28.5054 33.8388 26.1612C31.4946 23.817 28.3152 22.5 25 22.5C21.6848 22.5 18.5054 23.817 16.1612 26.1612C13.817 28.5054 12.5 31.6848 12.5 35Z" stroke="#4194CB" stroke-width="6" stroke-linecap="round" stroke-linejoin="round"/>
</svg>
