<svg width="42" height="42" viewBox="0 0 42 42" fill="none" xmlns="http://www.w3.org/2000/svg">
<g clip-path="url(#clip0_711_11224)">
<path d="M10.3977 18.0506C12.2925 18.5365 14.2223 17.3944 14.7082 15.4997C15.194 13.605 14.0519 11.6752 12.1572 11.1893C10.2625 10.7034 8.33269 11.8455 7.84682 13.7402C7.36096 15.6349 8.50304 17.5648 10.3977 18.0506Z" fill="#FCD11E"/>
<path d="M17.9805 14.1451C19.8752 14.631 21.805 13.4889 22.2909 11.5942C22.7768 9.69949 21.6347 7.76966 19.74 7.28379C17.8453 6.79793 15.9155 7.94001 15.4296 9.83472C14.9437 11.7294 16.0858 13.6593 17.9805 14.1451Z" fill="#FCD11E"/>
<path d="M26.2142 16.2565C28.1089 16.7423 30.0387 15.6002 30.5246 13.7055C31.0104 11.8108 29.8683 9.88099 27.9736 9.39512C26.0789 8.90925 24.1491 10.0513 23.6632 11.946C23.1774 13.8407 24.3194 15.7706 26.2142 16.2565Z" fill="#FCD11E"/>
<path d="M30.9817 23.3292C32.8764 23.8151 34.8063 22.673 35.2921 20.7783C35.778 18.8836 34.6359 16.9537 32.7412 16.4679C30.8465 15.982 28.9167 17.1241 28.4308 19.0188C27.9449 20.9135 29.087 22.8433 30.9817 23.3292Z" fill="#FCD11E"/>
<path d="M27.0113 26.4939C26.1763 24.788 25.4807 23.3372 24.6321 21.6279C24.1908 20.725 23.5712 19.7763 22.6951 19.2007C22.5582 19.1071 22.4178 19.0272 22.2739 18.961C21.9449 18.8182 21.5744 18.7232 21.2176 18.6317C20.8608 18.5402 20.4903 18.4452 20.1159 18.4223C19.958 18.411 19.7964 18.4135 19.6314 18.4297C18.5864 18.5127 17.6004 19.0496 16.7655 19.6252C15.2126 20.7188 13.9047 21.6558 12.3382 22.7458C10.0796 24.0825 7.35997 25.5057 7.0573 28.397C7.09632 29.8988 7.74266 31.5416 9.43828 32.4006C10.3872 32.8633 13.7922 32.8736 17.1955 33.7463L17.4425 33.8096C20.8457 34.6823 23.839 36.2982 24.89 36.3629C26.7897 36.426 28.1504 35.2831 28.9038 33.9992C30.047 31.3089 28.3479 28.7525 27.0113 26.4939Z" fill="#FCD11E"/>
</g>
<defs>
<clipPath id="clip0_711_11224">
<rect width="34" height="34" fill="white" transform="translate(8.44531) rotate(14.3827)"/>
</clipPath>
</defs>
</svg>
