<svg width="70" height="70" viewBox="0 0 70 70" fill="none" xmlns="http://www.w3.org/2000/svg">
<g clip-path="url(#clip0_687_1748)">
<path d="M13.125 35.0001C17.1521 35.0001 20.4166 31.7355 20.4166 27.7084C20.4166 23.6813 17.1521 20.4167 13.125 20.4167C9.0979 20.4167 5.83331 23.6813 5.83331 27.7084C5.83331 31.7355 9.0979 35.0001 13.125 35.0001Z" fill="#FCD11E"/>
<path d="M26.25 23.3333C30.2771 23.3333 33.5416 20.0687 33.5416 16.0417C33.5416 12.0146 30.2771 8.75 26.25 8.75C22.2229 8.75 18.9583 12.0146 18.9583 16.0417C18.9583 20.0687 22.2229 23.3333 26.25 23.3333Z" fill="#FCD11E"/>
<path d="M43.75 23.3333C47.7771 23.3333 51.0416 20.0687 51.0416 16.0417C51.0416 12.0146 47.7771 8.75 43.75 8.75C39.7229 8.75 36.4583 12.0146 36.4583 16.0417C36.4583 20.0687 39.7229 23.3333 43.75 23.3333Z" fill="#FCD11E"/>
<path d="M56.875 35.0001C60.9021 35.0001 64.1666 31.7355 64.1666 27.7084C64.1666 23.6813 60.9021 20.4167 56.875 20.4167C52.8479 20.4167 49.5833 23.6813 49.5833 27.7084C49.5833 31.7355 52.8479 35.0001 56.875 35.0001Z" fill="#FCD11E"/>
<path d="M50.5759 43.3417C48.0384 40.3667 45.9093 37.8292 43.3426 34.8542C42.0009 33.2792 40.2801 31.7042 38.2384 31.0042C37.9176 30.8875 37.5968 30.8 37.2759 30.7417C36.5468 30.625 35.7593 30.625 35.0009 30.625C34.2426 30.625 33.4551 30.625 32.6968 30.7708C32.3759 30.8292 32.0551 30.9167 31.7343 31.0333C29.6926 31.7333 28.0009 33.3083 26.6301 34.8833C24.0926 37.8583 21.9634 40.3958 19.3968 43.3708C15.5759 47.1917 10.8801 51.4208 11.7551 57.3417C12.6009 60.3167 14.7301 63.2625 18.5509 64.1083C20.6801 64.5458 27.4759 62.825 34.7093 62.825H35.2343C42.4676 62.825 49.2634 64.5167 51.3926 64.1083C55.2134 63.2625 57.3426 60.2875 58.1884 57.3417C59.0926 51.3917 54.3968 47.1625 50.5759 43.3417Z" fill="#FCD11E"/>
<path d="M42.8433 63.4071C43.2278 62.6157 43.5908 61.9266 43.9322 61.34C44.2622 60.7723 44.4865 60.4147 44.6051 60.2673C44.7352 60.1047 44.8572 60.0238 44.9711 60.0245C45.0319 60.0248 45.0868 60.0499 45.1359 60.0995C45.1812 60.1492 45.2037 60.2025 45.2033 60.2594C45.2028 60.3468 45.1374 60.4926 45.007 60.6969C44.4511 61.5823 43.9407 62.4813 43.4757 63.3938C42.9377 64.4578 42.6672 65.2556 42.664 65.7873C42.6627 66.0038 42.7035 66.1749 42.7863 66.3007C42.8013 66.3274 42.8693 66.3886 42.9903 66.4842C43.013 66.5033 43.0241 66.5414 43.0238 66.5984C43.0233 66.6743 42.9926 66.7444 42.9314 66.8086C42.8741 66.869 42.8093 66.899 42.7372 66.8986C42.6498 66.8981 42.5533 66.8443 42.4476 66.7374C42.2966 66.5845 42.2065 66.4093 42.1773 66.2117C42.1664 66.128 42.154 65.9723 42.1402 65.7443C41.7372 66.4597 41.3553 66.8163 40.9945 66.8142C40.7856 66.813 40.6192 66.6942 40.4953 66.458C40.4127 66.3018 40.3719 66.125 40.3731 65.9275C40.3766 65.3351 40.5966 64.7401 41.0331 64.1427C41.4657 63.5528 41.9289 63.2593 42.4226 63.2622C42.5593 63.263 42.6996 63.3113 42.8433 63.4071ZM42.6469 63.8731C42.5447 63.8041 42.4557 63.7694 42.3797 63.769C42.0607 63.7671 41.7577 63.9609 41.4705 64.3503C41.0915 64.857 40.9006 65.3477 40.8978 65.8224C40.8975 65.8794 40.9086 65.9326 40.9311 65.9821C40.9761 66.0773 41.0441 66.1252 41.1353 66.1257C41.2682 66.1265 41.4304 65.9984 41.6218 65.7412C41.8783 65.401 42.1161 64.9979 42.3353 64.5321C42.4122 64.373 42.4872 64.2139 42.5603 64.0549C42.5603 64.0549 42.5776 64.0189 42.6123 63.9469L42.6469 63.8731ZM45.8019 63.0771C46.1133 63.079 46.2679 63.2698 46.2656 63.6496C46.2626 64.1547 46.0253 64.7932 45.5536 65.5651C45.0397 66.4014 44.5454 66.8181 44.0707 66.8153C43.8504 66.814 43.6897 66.7105 43.5883 66.5049C43.5358 66.402 43.5099 66.2784 43.5108 66.1341C43.5136 65.648 43.6839 65.1211 44.0214 64.5534C44.336 64.0274 44.7049 63.6194 45.1282 63.3295C45.376 63.1601 45.6006 63.076 45.8019 63.0771ZM45.1967 65.2269C45.1022 65.1504 45.0551 65.0913 45.0553 65.0495C45.0555 65.0191 45.1167 64.9359 45.2391 64.7999C45.5831 64.4184 45.7559 64.1099 45.7573 63.8744C45.7574 63.844 45.7481 63.8136 45.7293 63.7831C45.6993 63.726 45.652 63.6972 45.5874 63.6968C45.4659 63.6961 45.2867 63.8128 45.0499 64.0468C44.7442 64.3488 44.5107 64.6608 44.3493 64.9826C44.161 65.3499 44.0662 65.6551 44.0647 65.8981C44.0644 65.9627 44.0811 66.0198 44.115 66.0693C44.164 66.138 44.2264 66.1725 44.3024 66.173C44.4847 66.1741 44.6811 66.0385 44.8916 65.7663C44.9834 65.6529 45.0581 65.5356 45.1158 65.4144C45.1735 65.2932 45.2005 65.2307 45.1967 65.2269ZM47.9989 66.2746C48.4071 65.9808 48.7106 65.713 48.9095 65.4711C49.204 65.1196 49.4127 64.8341 49.5355 64.6146C49.5968 64.5162 49.6598 64.4672 49.7244 64.4676C49.8155 64.4681 49.8608 64.5121 49.8603 64.5994C49.8597 64.702 49.7865 64.8724 49.6408 65.1108C49.1884 65.8373 48.5124 66.4695 47.6129 67.0072C47.19 67.8782 46.8789 68.4688 46.6796 68.7791C46.1506 69.5963 45.6545 70.0035 45.1912 70.0007C44.9481 69.9993 44.774 69.9033 44.6688 69.7128C44.6087 69.6023 44.579 69.4768 44.5799 69.3363C44.5834 68.7401 44.9704 68.1708 45.7407 67.6285C45.8628 67.538 46.3563 67.2561 47.2212 66.7827C47.3904 66.4305 47.5211 66.1541 47.6135 65.9533C47.2122 66.3687 46.8806 66.5756 46.6186 66.5741C46.4553 66.5731 46.3285 66.4888 46.2384 66.3212C46.1821 66.2107 46.1543 66.0966 46.155 65.9789C46.1566 65.7054 46.2707 65.3548 46.4973 64.927C46.82 64.3099 47.2064 63.8222 47.6567 63.4641C48.0345 63.1663 48.3676 63.0183 48.6563 63.02C48.8044 63.0209 48.9313 63.0767 49.0369 63.1875C49.1087 63.26 49.1441 63.3666 49.1433 63.5071C49.1423 63.6818 49.0821 63.8979 48.9629 64.1555C49.0497 64.2395 49.093 64.3024 49.0928 64.3442C49.0926 64.3708 49.0734 64.4087 49.0351 64.4578C48.9317 64.5977 48.765 64.8607 48.5348 65.2467C48.3316 65.5835 48.1529 65.9261 47.9989 66.2746ZM47.9669 64.9585C47.914 64.9012 47.8877 64.8612 47.8878 64.8384C47.888 64.8042 47.9168 64.7607 47.974 64.7079C48.165 64.5267 48.3199 64.3377 48.4388 64.141C48.5347 63.9858 48.5829 63.8646 48.5834 63.7772C48.584 63.6747 48.5369 63.6231 48.4419 63.6226C48.2786 63.6216 48.0441 63.7759 47.7385 64.0855C47.3755 64.4518 47.092 64.8622 46.8881 65.3167C46.788 65.544 46.7376 65.7184 46.7369 65.8399C46.7364 65.9083 46.7513 65.9596 46.7815 65.994C46.8117 66.0283 46.8553 66.0457 46.9122 66.046C47.0451 66.0468 47.232 65.9112 47.4729 65.6392C47.6259 65.4654 47.756 65.2953 47.8633 65.1288C47.9361 65.0191 47.9706 64.9623 47.9669 64.9585ZM46.8755 67.4415C46.3729 67.6512 45.9286 67.9714 45.5425 68.402C45.3628 68.6023 45.2343 68.8142 45.157 69.0378C45.1338 69.106 45.1221 69.1629 45.1218 69.2085C45.1215 69.2579 45.1327 69.3016 45.1552 69.3397C45.1966 69.4083 45.2553 69.4428 45.3312 69.4433C45.5667 69.4447 45.8435 69.1938 46.1617 68.6905C46.4377 68.2554 46.6756 67.8391 46.8755 67.4415ZM54.7672 65.2153C54.438 65.6538 54.1951 65.9562 54.0384 66.1224C53.8434 66.3301 53.6754 66.4886 53.5342 66.5979C53.374 66.7147 53.2256 66.7727 53.0889 66.7719C52.9559 66.7711 52.8538 66.7041 52.7824 66.5707C52.7261 66.4678 52.6983 66.3537 52.699 66.2284C52.7015 65.8145 52.9517 65.2463 53.4497 64.5238C53.9017 63.8695 54.2359 63.543 54.4524 63.5442C54.5056 63.5446 54.5567 63.5696 54.6058 63.6192C54.6511 63.6651 54.6736 63.7184 54.6732 63.7791C54.6727 63.8627 54.598 63.9781 54.449 64.1253C54.1319 64.4348 53.8564 64.7845 53.6224 65.1743C53.423 65.5073 53.3229 65.7251 53.3223 65.8276C53.3219 65.9036 53.3558 65.9418 53.4242 65.9422C53.6521 65.9435 54.1487 65.4527 54.9141 64.4699C55.1628 64.1523 55.3139 63.969 55.3674 63.92C55.4666 63.8294 55.5675 63.7844 55.6701 63.785C55.7384 63.7854 55.7972 63.8048 55.8463 63.843C55.8879 63.8813 55.9085 63.9213 55.9083 63.963C55.908 64.0086 55.8157 64.1999 55.6314 64.5368C55.2132 65.2635 55.0033 65.754 55.0018 66.0085C55.0012 66.1072 55.0408 66.1568 55.1205 66.1573C55.2573 66.1581 55.4462 66.0016 55.6873 65.6878C55.9169 65.393 56.1299 65.0182 56.3263 64.5637C56.411 64.3667 56.4866 64.107 56.5531 63.7846C56.6312 63.4166 56.7842 63.2333 57.0121 63.2347C57.1412 63.2355 57.2053 63.308 57.2045 63.4523C57.2015 63.9498 56.9202 64.6317 56.3606 65.4981C55.778 66.4024 55.2892 66.8533 54.8943 66.851C54.6018 66.8492 54.4567 66.668 54.4588 66.3072C54.4606 66.011 54.5634 65.647 54.7672 65.2153ZM58.8649 65.8889C58.7382 66.1085 58.6137 66.2938 58.4913 66.445C58.2503 66.7398 58.012 66.8865 57.7766 66.8851C57.5715 66.8839 57.4126 66.7861 57.2998 66.5918C57.2284 66.466 57.1932 66.3177 57.1942 66.1468C57.1967 65.7253 57.3324 65.2608 57.6012 64.7535C57.9008 64.1894 58.2604 63.7567 58.6799 63.4554C58.9545 63.2595 59.219 63.1623 59.4735 63.1638C59.633 63.1648 59.7656 63.2149 59.8713 63.3143C59.962 63.4022 60.007 63.5012 60.0063 63.6113C60.0058 63.6949 59.9728 63.8105 59.9074 63.9582C59.9639 64.0383 59.992 64.1088 59.9916 64.1695C59.9911 64.2493 59.9372 64.38 59.8298 64.5616C59.7185 64.7471 59.6069 64.9933 59.495 65.3002C59.3753 65.6261 59.3149 65.8878 59.3137 66.0853C59.3128 66.2448 59.3595 66.3761 59.4538 66.4792C59.4803 66.5059 59.5578 66.5501 59.6866 66.6116C59.7813 66.6577 59.8283 66.7378 59.8276 66.8517C59.8272 66.9239 59.8002 66.9826 59.7468 67.0278C59.6896 67.0769 59.6229 67.1011 59.547 67.1007C59.3419 67.0995 59.1659 67.0073 59.0188 66.8241C58.8982 66.6753 58.8385 66.4888 58.8399 66.2648C58.8403 66.1888 58.8486 66.0636 58.8649 65.8889ZM59.588 64.019C59.543 63.9352 59.4939 63.8741 59.441 63.8358C59.3881 63.7938 59.3312 63.7725 59.2705 63.7722C58.9819 63.7705 58.6671 64.0212 58.3261 64.5242C57.9506 65.0803 57.7617 65.552 57.7594 65.9394C57.7588 66.0343 57.7755 66.1066 57.8094 66.1561C57.8471 66.2057 57.902 66.2307 57.9742 66.2312C58.1564 66.2323 58.3703 66.0398 58.6156 65.6539C58.7536 65.442 58.9244 65.1297 59.1282 64.717C59.2627 64.4481 59.3606 64.2702 59.4219 64.1832C59.4525 64.1378 59.5079 64.0831 59.588 64.019ZM61.1491 64.9511C61.0334 65.2467 60.9466 65.4854 60.8885 65.6674C60.8305 65.8493 60.8012 65.9764 60.8008 66.0485C60.8002 66.1435 60.8455 66.1912 60.9367 66.1918C61.0734 66.1926 61.2508 66.0645 61.4687 65.8075C61.572 65.6828 61.7253 65.4578 61.9285 65.1323C62.009 65.0037 62.0929 64.9396 62.1803 64.9401C62.279 64.9407 62.3281 64.9885 62.3275 65.0834C62.3266 65.2467 62.1366 65.576 61.7577 66.0713C61.3635 66.5893 60.9993 66.8472 60.6651 66.8453C60.5207 66.8444 60.4034 66.783 60.313 66.6609C60.2489 66.5732 60.2173 66.4666 60.218 66.3413C60.2193 66.1286 60.2856 65.8347 60.4169 65.4595C60.5483 65.0843 60.7428 64.6278 61.0004 64.09C61.6617 62.723 62.3349 61.5971 63.02 60.7125C63.5672 60.0017 64.0194 59.6474 64.3764 59.6495C64.4903 59.6502 64.5831 59.6944 64.6547 59.7822C64.7302 59.87 64.7675 59.9708 64.7669 60.0848C64.7637 60.6165 64.2838 61.4985 63.327 62.7309C62.8984 63.2791 62.3863 63.8267 61.7906 64.3739C61.634 64.5173 61.4202 64.7097 61.1491 64.9511ZM61.5589 64.0478C62.3528 63.3765 63.0643 62.5262 63.6932 61.4969C64.0192 60.9633 64.1827 60.6092 64.1837 60.4345C64.1842 60.351 64.1484 60.309 64.0762 60.3086C63.8674 60.3073 63.4851 60.7209 62.9295 61.5493C62.4698 62.2302 62.0129 63.063 61.5589 64.0478ZM65.0602 64.4274C64.8097 65.0374 64.6835 65.5019 64.6816 65.8209C64.6807 65.9766 64.7103 66.1059 64.7705 66.2088C64.8457 66.3383 64.9459 66.4035 65.0712 66.4042C65.3295 66.4058 65.6286 66.2347 65.9687 65.8912C66.194 65.6722 66.3833 65.4493 66.5366 65.2223C66.6362 65.071 66.7297 64.9956 66.8171 64.9961C66.9044 64.9966 66.9478 65.0405 66.9473 65.1279C66.9465 65.2722 66.77 65.5674 66.418 66.0134C65.8976 66.675 65.3943 67.0043 64.9082 67.0014C64.6158 66.9997 64.4096 66.8561 64.2898 66.5705C64.1999 66.3611 64.1556 66.1406 64.157 65.9089C64.1581 65.7152 64.2054 65.4288 64.2988 65.0495C64.0507 65.2532 63.6737 65.7522 63.1677 66.5468C63.0335 66.7625 62.9113 66.87 62.8012 66.8693C62.7442 66.869 62.695 66.844 62.6535 66.7944C62.6121 66.741 62.5915 66.6877 62.5918 66.6345C62.5927 66.4826 62.7951 65.9768 63.1989 65.1171C63.9104 63.6136 64.6699 62.3496 65.4773 61.3252C65.9136 60.7657 66.3053 60.3578 66.6524 60.1016C66.9652 59.868 67.2146 59.7518 67.4007 59.7529C67.4843 59.7534 67.5581 59.788 67.6223 59.8567C67.7053 59.9408 67.7465 60.0436 67.7458 60.1651C67.7439 60.4879 67.5724 60.9008 67.2314 61.4039C66.8752 61.9221 66.2714 62.5471 65.4202 63.2788C64.943 63.6861 64.5139 64.0064 64.1327 64.2396C64.0827 64.3381 63.9424 64.6259 63.7117 65.103C64.1895 64.5932 64.5675 64.2422 64.8459 64.0502C65.0251 63.9297 65.267 63.8039 65.5716 63.6728C65.7772 63.5866 65.9256 63.5439 66.0167 63.5444C66.0661 63.5447 66.1097 63.5639 66.1474 63.6021C66.189 63.6366 66.2096 63.6823 66.2093 63.7392C66.2085 63.8645 66.1226 63.9514 65.9514 63.9997C65.6622 64.0854 65.3652 64.2279 65.0602 64.4274ZM64.5761 63.4447C65.2013 63.0382 65.7854 62.5195 66.3285 61.8885C66.6 61.5749 66.8182 61.2724 66.9833 60.9809C67.0984 60.7765 67.1563 60.6306 67.1568 60.5433C67.1573 60.4559 67.1177 60.412 67.0379 60.4116C66.8252 60.4103 66.4568 60.7347 65.9327 61.3848C65.5003 61.9254 65.0481 62.612 64.5761 63.4447Z" fill="black"/>
</g>
<g filter="url(#filter0_d_687_1748)">
<path d="M8.27844 34.448L13.4584 34.476C16.1651 34.476 18.5451 35.456 20.5984 37.416C22.6518 39.3573 23.6784 41.756 23.6784 44.612C23.6784 47.4493 22.6704 49.8853 20.6544 51.92C18.6571 53.9547 16.2304 54.972 13.3744 54.972H8.25044C7.11178 54.972 6.40244 54.7387 6.12244 54.272C5.89844 53.88 5.78644 53.2827 5.78644 52.48V36.912C5.78644 36.464 5.79578 36.1373 5.81444 35.932C5.85178 35.7267 5.94511 35.484 6.09444 35.204C6.35578 34.7 7.08378 34.448 8.27844 34.448ZM13.4584 50.016C14.8024 50.016 16.0158 49.5213 17.0984 48.532C18.1811 47.524 18.7224 46.264 18.7224 44.752C18.7224 43.24 18.1904 41.98 17.1264 40.972C16.0811 39.9453 14.8491 39.432 13.4304 39.432H10.7424V50.016H13.4584ZM35.1333 34.224C37.896 34.224 40.2946 35.2227 42.3293 37.22C44.364 39.2173 45.3813 41.7 45.3813 44.668C45.3813 47.6173 44.4106 50.1373 42.4693 52.228C40.528 54.3 38.1386 55.336 35.3013 55.336C32.464 55.336 30.0466 54.3093 28.0493 52.256C26.0706 50.2027 25.0813 47.7573 25.0813 44.92C25.0813 43.3707 25.3613 41.924 25.9213 40.58C26.4813 39.2173 27.228 38.0787 28.1613 37.164C29.0946 36.2493 30.168 35.5307 31.3813 35.008C32.5946 34.4853 33.8453 34.224 35.1333 34.224ZM30.0373 44.78C30.0373 46.4413 30.5693 47.7947 31.6333 48.84C32.716 49.8667 33.92 50.38 35.2453 50.38C36.5706 50.38 37.7653 49.876 38.8293 48.868C39.8933 47.86 40.4253 46.5067 40.4253 44.808C40.4253 43.1093 39.884 41.7467 38.8013 40.72C37.7373 39.6933 36.5426 39.18 35.2173 39.18C33.892 39.18 32.6973 39.7027 31.6333 40.748C30.5693 41.7747 30.0373 43.1187 30.0373 44.78ZM56.0042 44.696C58.8602 47.44 60.8856 49.5027 62.0802 50.884C62.6962 51.5747 63.0042 52.1627 63.0042 52.648C63.0042 53.1147 62.6309 53.6747 61.8842 54.328C61.1376 54.9627 60.5216 55.28 60.0362 55.28C59.5696 55.28 59.0002 54.888 58.3282 54.104L52.1682 47.076V52.536C52.1682 52.984 52.1496 53.3107 52.1122 53.516C52.0936 53.7213 52.0096 53.964 51.8602 54.244C51.5989 54.748 50.8709 55 49.6762 55C48.3696 55 47.6042 54.6453 47.3802 53.936C47.2682 53.6373 47.2122 53.1613 47.2122 52.508V36.94C47.2122 36.5107 47.2216 36.1933 47.2402 35.988C47.2776 35.764 47.3709 35.512 47.5202 35.232C47.7816 34.728 48.5096 34.476 49.7042 34.476C51.0109 34.476 51.7856 34.8213 52.0282 35.512C52.1216 35.8293 52.1682 36.3147 52.1682 36.968V42.316C54.7069 39.46 56.7602 37.1173 58.3282 35.288C58.9816 34.5227 59.5509 34.14 60.0362 34.14C60.5216 34.14 61.1376 34.4667 61.8842 35.12C62.6309 35.7547 63.0042 36.3147 63.0042 36.8C63.0042 37.2667 62.7242 37.8267 62.1642 38.48C61.0816 39.7307 59.4016 41.448 57.1242 43.632L56.0042 44.696Z" fill="#FFFEFA"/>
</g>
<defs>
<filter id="filter0_d_687_1748" x="5.78644" y="34.1399" width="59.5511" height="22.3627" filterUnits="userSpaceOnUse" color-interpolation-filters="sRGB">
<feFlood flood-opacity="0" result="BackgroundImageFix"/>
<feColorMatrix in="SourceAlpha" type="matrix" values="0 0 0 0 0 0 0 0 0 0 0 0 0 0 0 0 0 0 127 0" result="hardAlpha"/>
<feOffset dx="2.33333" dy="1.16667"/>
<feComposite in2="hardAlpha" operator="out"/>
<feColorMatrix type="matrix" values="0 0 0 0 0.382595 0 0 0 0 0.666222 0 0 0 0 0.854167 0 0 0 1 0"/>
<feBlend mode="normal" in2="BackgroundImageFix" result="effect1_dropShadow_687_1748"/>
<feBlend mode="normal" in="SourceGraphic" in2="effect1_dropShadow_687_1748" result="shape"/>
</filter>
<clipPath id="clip0_687_1748">
<rect width="70" height="70" fill="white"/>
</clipPath>
</defs>
</svg>
