<svg width="36" height="76" viewBox="0 0 36 76" fill="none" xmlns="http://www.w3.org/2000/svg">
<rect width="36" height="76" fill="white"/>
<mask id="path-2-inside-1_2167_11530" fill="white">
<path d="M0 0H10C15.5228 0 20 4.47715 20 10V34.4485H10C4.47715 34.4485 0 29.9713 0 24.4485V0Z"/>
</mask>
<path d="M0 0H10C15.5228 0 20 4.47715 20 10V34.4485H10C4.47715 34.4485 0 29.9713 0 24.4485V0Z" fill="white"/>
<path d="M0 -3H10C17.1797 -3 23 2.8203 23 10H17C17 6.13401 13.866 3 10 3H0V-3ZM20 34.4485H0H20ZM0 34.4485V0V34.4485ZM10 -3C17.1797 -3 23 2.8203 23 10V34.4485H17V10C17 6.13401 13.866 3 10 3V-3Z" fill="#FCD11E" mask="url(#path-2-inside-1_2167_11530)"/>
<mask id="path-4-inside-2_2167_11530" fill="white">
<path d="M36 64H27C21.4772 64 17 59.5228 17 54V32.5079H26C31.5228 32.5079 36 36.9851 36 42.5079V64Z"/>
</mask>
<path d="M36 64H27C21.4772 64 17 59.5228 17 54V32.5079H26C31.5228 32.5079 36 36.9851 36 42.5079V64Z" fill="white"/>
<path d="M36 67H27C19.8203 67 14 61.1797 14 54H20C20 57.866 23.134 61 27 61H36V67ZM17 32.5079H36H17ZM36 32.5079V64V32.5079ZM27 67C19.8203 67 14 61.1797 14 54V32.5079H20V54C20 57.866 23.134 61 27 61V67Z" fill="#FCD11E" mask="url(#path-4-inside-2_2167_11530)"/>
<path fill-rule="evenodd" clip-rule="evenodd" d="M30.9231 1.5V0H36V1.5V3H30.9231V1.5ZM3 3H5.53846V1.5V0H3V1.5V3ZM8.07693 0V1.5V3H13.1538V1.5V0H8.07693ZM15.6923 0V1.5V3H20.7692V1.5V0H15.6923ZM23.3077 0V1.5V3H28.3846V1.5V0H23.3077Z" fill="#FCD11E"/>
</svg>
