<svg width="36" height="76" viewBox="0 0 36 76" fill="none" xmlns="http://www.w3.org/2000/svg">
<rect width="36" height="76" transform="matrix(-1 0 0 1 36 0)" fill="white"/>
<mask id="path-2-inside-1_2167_11561" fill="white">
<path d="M36 0H26C20.4772 0 16 4.47715 16 10V34.4485H26C31.5228 34.4485 36 29.9713 36 24.4485V0Z"/>
</mask>
<path d="M36 0H26C20.4772 0 16 4.47715 16 10V34.4485H26C31.5228 34.4485 36 29.9713 36 24.4485V0Z" fill="white"/>
<path d="M36 -3H26C18.8203 -3 13 2.8203 13 10H19C19 6.13401 22.134 3 26 3H36V-3ZM16 34.4485H36H16ZM36 34.4485V0V34.4485ZM26 -3C18.8203 -3 13 2.8203 13 10V34.4485H19V10C19 6.13401 22.134 3 26 3V-3Z" fill="#FCD11E" mask="url(#path-2-inside-1_2167_11561)"/>
<mask id="path-4-inside-2_2167_11561" fill="white">
<path d="M0 64H9C14.5228 64 19 59.5228 19 54V32.5079H10C4.47715 32.5079 0 36.9851 0 42.5079V64Z"/>
</mask>
<path d="M0 64H9C14.5228 64 19 59.5228 19 54V32.5079H10C4.47715 32.5079 0 36.9851 0 42.5079V64Z" fill="white"/>
<path d="M0 67H9C16.1797 67 22 61.1797 22 54H16C16 57.866 12.866 61 9 61H0V67ZM19 32.5079H0H19ZM0 32.5079V64V32.5079ZM9 67C16.1797 67 22 61.1797 22 54V32.5079H16V54C16 57.866 12.866 61 9 61V67Z" fill="#FCD11E" mask="url(#path-4-inside-2_2167_11561)"/>
<path fill-rule="evenodd" clip-rule="evenodd" d="M5.07689 1.5V0H3.05176e-05V1.5V3H5.07689V1.5ZM33 3H30.4615V1.5V0H33V1.5V3ZM27.9231 0V1.5V3H22.8462V1.5V0H27.9231ZM20.3077 0V1.5V3H15.2308V1.5V0H20.3077ZM12.6923 0V1.5V3H7.61542V1.5V0H12.6923Z" fill="#FCD11E"/>
</svg>
