<svg width="298" height="298" viewBox="0 0 298 298" fill="none" xmlns="http://www.w3.org/2000/svg">
<g clip-path="url(#clip0_344_4306)">
<path d="M90.1883 114.144C100.942 120.489 114.803 116.914 121.148 106.16C127.492 95.4054 123.917 81.5444 113.163 75.2002C102.409 68.8559 88.5476 72.4309 82.2034 83.185C75.8591 93.9392 79.4341 107.8 90.1883 114.144Z" fill="#FFFEFA"/>
<path d="M143.618 103.664C154.372 110.008 168.233 106.433 174.578 95.6792C180.922 84.925 177.347 71.064 166.593 64.7197C155.839 58.3755 141.978 61.9504 135.633 72.7046C129.289 83.4588 132.864 97.3198 143.618 103.664Z" fill="#FFFEFA"/>
<path d="M190.352 131.234C201.106 137.579 214.967 134.004 221.311 123.249C227.655 112.495 224.08 98.6343 213.326 92.29C202.572 85.9458 188.711 89.5207 182.367 100.275C176.022 111.029 179.597 124.89 190.352 131.234Z" fill="#FFFEFA"/>
<path d="M207.022 183.068C217.776 189.413 231.637 185.838 237.981 175.083C244.325 164.329 240.751 150.468 229.996 144.124C219.242 137.78 205.381 141.355 199.037 152.109C192.693 162.863 196.268 176.724 207.022 183.068Z" fill="#FFFEFA"/>
<path d="M177.058 195.418C174.968 183.476 173.28 173.345 171.112 161.357C170.011 155.038 167.897 148.121 163.547 143.035C162.874 142.218 162.155 141.479 161.39 140.818C159.627 139.357 157.524 138.117 155.499 136.922C153.474 135.727 151.371 134.487 149.116 133.681C148.167 133.332 147.173 133.06 146.132 132.866C139.577 131.519 132.578 133.06 126.436 135.106C114.973 139.053 105.29 142.475 93.7487 146.376C77.526 150.561 58.3233 154.457 51.3322 171.646C48.9042 180.924 49.9492 192.145 58.8201 200.423C63.8167 204.945 84.6758 211.056 103.992 222.452L105.394 223.279C124.711 234.674 140.194 249.898 146.523 252.162C158.059 255.922 168.431 251.332 175.331 244.798C187.119 230.333 181.242 211.641 177.058 195.418Z" fill="#FFFEFA"/>
</g>
<defs>
<clipPath id="clip0_344_4306">
<rect width="217.037" height="217.037" fill="white" transform="translate(110.278) rotate(30.5378)"/>
</clipPath>
</defs>
</svg>
