<svg width="273" height="77" viewBox="0 0 273 77" fill="none" xmlns="http://www.w3.org/2000/svg">
<g clip-path="url(#clip0_344_4313)">
<path d="M74.3 57.9257C74.1361 59.1509 75.0102 60.2915 76.2524 60.4732C77.4945 60.6549 78.6344 59.8089 78.7984 58.5837C78.9623 57.3585 78.0882 56.2179 76.846 56.0362C75.6038 55.8545 74.464 56.7005 74.3 57.9257Z" fill="#FFFEFA"/>
<path d="M77.3645 62.4452C77.2005 63.6705 78.0746 64.811 79.3168 64.9927C80.559 65.1744 81.6989 64.3284 81.8628 63.1032C82.0268 61.878 81.1527 60.7375 79.9105 60.5558C78.6683 60.3741 77.5284 61.22 77.3645 62.4452Z" fill="#FFFEFA"/>
<path d="M76.6526 67.7695C76.4886 68.9947 77.3627 70.1352 78.6049 70.3169C79.8471 70.4986 80.987 69.6527 81.1509 68.4274C81.3149 67.2022 80.4408 66.0617 79.1986 65.88C77.9564 65.6983 76.8165 66.5442 76.6526 67.7695Z" fill="#FFFEFA"/>
<path d="M72.5193 71.2363C72.3553 72.4615 73.2294 73.602 74.4716 73.7837C75.7138 73.9654 76.8537 73.1195 77.0176 71.8942C77.1816 70.669 76.3075 69.5285 75.0653 69.3468C73.8231 69.1651 72.6832 70.011 72.5193 71.2363Z" fill="#FFFEFA"/>
<path d="M70.2027 68.9435C71.2236 68.3057 72.093 67.7724 73.1152 67.1258C73.6556 66.7886 74.2115 66.3361 74.5105 65.7465C74.5596 65.6542 74.5996 65.5605 74.6307 65.4656C74.6964 65.249 74.7284 65.0094 74.7593 64.7787C74.7902 64.5479 74.8222 64.3083 74.8081 64.071C74.8032 63.9708 74.7893 63.8692 74.7663 63.7664C74.6335 63.1136 74.2166 62.5279 73.7866 62.0397C72.9722 61.1335 72.2762 60.3712 71.463 59.4561C70.44 58.1212 69.3266 56.5017 67.4646 56.5008C66.5125 56.6239 65.5172 57.1388 65.1007 58.2631C64.8791 58.8911 65.1333 61.0364 64.8388 63.2371L64.8174 63.3968C64.523 65.5975 63.7245 67.5888 63.7638 68.255C63.8691 69.4557 64.7001 70.2377 65.5744 70.6279C67.3729 71.1715 68.8686 69.9336 70.2027 68.9435Z" fill="#FFFEFA"/>
</g>
<g clip-path="url(#clip1_344_4313)">
<path d="M123.187 46.8538C123.424 48.085 124.6 48.9038 125.814 48.6827C127.028 48.4617 127.821 47.2845 127.584 46.0534C127.347 44.8222 126.17 44.0034 124.956 44.2245C123.742 44.4455 122.95 45.6227 123.187 46.8538Z" fill="#FFFEFA"/>
<path d="M127.477 50.2249C127.714 51.4561 128.89 52.2749 130.105 52.0538C131.319 51.8328 132.111 50.6556 131.874 49.4245C131.637 48.1933 130.461 47.3745 129.246 47.5956C128.032 47.8166 127.24 48.9938 127.477 50.2249Z" fill="#FFFEFA"/>
<path d="M128.506 55.5745C128.743 56.8057 129.919 57.6245 131.134 57.4034C132.348 57.1824 133.14 56.0052 132.903 54.7741C132.666 53.5429 131.49 52.7241 130.275 52.9452C129.061 53.1662 128.269 54.3434 128.506 55.5745Z" fill="#FFFEFA"/>
<path d="M125.761 60.2269C125.998 61.458 127.174 62.2768 128.388 62.0558C129.602 61.8347 130.395 60.6575 130.158 59.4264C129.921 58.1953 128.744 57.3765 127.53 57.5975C126.316 57.8186 125.524 58.9958 125.761 60.2269Z" fill="#FFFEFA"/>
<path d="M122.873 58.7593C123.621 57.8204 124.261 57.0302 125.007 56.0823C125.403 55.5857 125.777 54.9732 125.868 54.3107C125.884 54.2063 125.892 54.1034 125.891 54.0021C125.883 53.7728 125.837 53.5321 125.792 53.3003C125.747 53.0685 125.701 52.8278 125.612 52.604C125.576 52.5091 125.531 52.4158 125.477 52.3242C125.145 51.7385 124.571 51.3079 124.015 50.9753C122.969 50.363 122.078 49.8515 121.03 49.2303C119.653 48.2721 118.102 47.0689 116.368 47.6614C115.52 48.0833 114.757 48.8959 114.727 50.1103C114.72 50.7851 115.639 52.7679 116.065 54.979L116.095 55.1395C116.521 57.3505 116.411 59.5207 116.659 60.1491C117.139 61.2706 118.161 61.7581 119.1 61.8549C120.947 61.8046 121.946 60.137 122.873 58.7593Z" fill="#FFFEFA"/>
</g>
<g clip-path="url(#clip2_344_4313)">
<path d="M157.683 19.7329C158.344 20.7987 159.733 21.1379 160.784 20.4906C161.835 19.8433 162.152 18.4545 161.491 17.3888C160.83 16.323 159.442 15.9837 158.39 16.6311C157.339 17.2784 157.022 18.6671 157.683 19.7329Z" fill="#FFFEFA"/>
<path d="M162.884 21.3306C163.545 22.3963 164.933 22.7356 165.985 22.0883C167.036 21.4409 167.352 20.0522 166.691 18.9864C166.03 17.9206 164.642 17.5814 163.591 18.2287C162.54 18.876 162.223 20.2648 162.884 21.3306Z" fill="#FFFEFA"/>
<path d="M165.756 25.9614C166.417 27.0272 167.806 27.3664 168.857 26.7191C169.908 26.0718 170.225 24.6831 169.564 23.6173C168.903 22.5515 167.515 22.2123 166.463 22.8596C165.412 23.5069 165.095 24.8956 165.756 25.9614Z" fill="#FFFEFA"/>
<path d="M164.864 31.311C165.525 32.3768 166.914 32.716 167.965 32.0687C169.016 31.4214 169.333 30.0327 168.672 28.9669C168.011 27.9011 166.623 27.5619 165.571 28.2092C164.52 28.8565 164.203 30.2452 164.864 31.311Z" fill="#FFFEFA"/>
<path d="M161.652 30.9849C162.012 29.8351 162.326 28.8637 162.681 27.7062C162.872 27.098 163.001 26.3894 162.849 25.7365C162.826 25.6329 162.797 25.5339 162.759 25.4396C162.67 25.2279 162.541 25.0195 162.416 24.8188C162.292 24.6181 162.162 24.4097 162 24.2324C161.932 24.1569 161.856 24.0861 161.773 24.0199C161.255 23.5921 160.567 23.3976 159.93 23.288C158.737 23.0947 157.725 22.9391 156.527 22.7381C154.902 22.3412 153.027 21.7783 151.625 22.9616C150.987 23.6637 150.567 24.7007 150.974 25.8479C151.209 26.4817 152.774 28.0036 153.961 29.9178L154.047 30.0568C155.234 31.9711 155.908 34.0415 156.364 34.5393C157.212 35.4145 158.338 35.4998 159.246 35.2501C160.948 34.5329 161.282 32.6103 161.652 30.9849Z" fill="#FFFEFA"/>
</g>
<g clip-path="url(#clip3_344_4313)">
<path d="M212.683 5.10783C212.708 6.36086 213.728 7.37115 214.962 7.36437C216.196 7.35759 217.177 6.3363 217.152 5.08327C217.127 3.83024 216.106 2.81995 214.872 2.82673C213.638 2.83351 212.658 3.85479 212.683 5.10783Z" fill="#FFFEFA"/>
<path d="M216.339 9.17228C216.364 10.4253 217.385 11.4356 218.619 11.4288C219.853 11.422 220.833 10.4008 220.808 9.14772C220.783 7.89469 219.763 6.8844 218.529 6.89118C217.295 6.89797 216.314 7.91925 216.339 9.17228Z" fill="#FFFEFA"/>
<path d="M216.447 14.6176C216.472 15.8706 217.493 16.8809 218.727 16.8741C219.961 16.8674 220.941 15.8461 220.916 14.593C220.892 13.34 219.871 12.3297 218.637 12.3365C217.403 12.3433 216.423 13.3646 216.447 14.6176Z" fill="#FFFEFA"/>
<path d="M212.954 18.7211C212.979 19.9741 213.999 20.9844 215.233 20.9776C216.467 20.9709 217.448 19.9496 217.423 18.6966C217.398 17.4435 216.377 16.4332 215.143 16.44C213.909 16.4468 212.929 17.4681 212.954 18.7211Z" fill="#FFFEFA"/>
<path d="M210.359 16.7743C211.255 15.9798 212.019 15.313 212.915 14.5094C213.389 14.0893 213.861 13.5512 214.063 12.9147C214.097 12.8147 214.122 12.7147 214.138 12.6148C214.169 12.3877 214.164 12.1427 214.159 11.9067C214.155 11.6708 214.15 11.4257 214.1 11.19C214.081 11.0903 214.052 10.9906 214.014 10.891C213.787 10.2569 213.294 9.73318 212.803 9.3093C211.875 8.52476 211.084 7.86654 210.157 7.07292C208.962 5.8905 207.637 4.4365 205.828 4.71873C204.922 4.98692 204.032 5.65438 203.797 6.84466C203.676 7.50789 204.245 9.61953 204.29 11.8702L204.293 12.0336C204.338 14.2842 203.862 16.4016 204 17.0634C204.283 18.2509 205.208 18.9083 206.116 19.1666C207.945 19.4379 209.212 17.9696 210.359 16.7743Z" fill="#FFFEFA"/>
</g>
<g clip-path="url(#clip4_344_4313)">
<path d="M260.441 18.6497C260.337 19.8816 261.266 20.9792 262.516 21.1013C263.766 21.2235 264.863 20.3238 264.966 19.0919C265.07 17.86 264.141 16.7623 262.891 16.6402C261.642 16.5181 260.545 17.4177 260.441 18.6497Z" fill="#FFFEFA"/>
<path d="M263.724 23.0188C263.62 24.2507 264.549 25.3484 265.799 25.4705C267.048 25.5926 268.145 24.6929 268.249 23.461C268.353 22.2291 267.424 21.1315 266.174 21.0093C264.924 20.8872 263.827 21.7869 263.724 23.0188Z" fill="#FFFEFA"/>
<path d="M263.273 28.3723C263.169 29.6042 264.098 30.7019 265.348 30.824C266.598 30.9461 267.695 30.0465 267.798 28.8146C267.902 27.5826 266.973 26.485 265.723 26.3629C264.474 26.2407 263.377 27.1404 263.273 28.3723Z" fill="#FFFEFA"/>
<path d="M259.316 32.0325C259.212 33.2644 260.141 34.362 261.391 34.4842C262.64 34.6063 263.737 33.7066 263.841 32.4747C263.945 31.2428 263.016 30.1451 261.766 30.023C260.516 29.9009 259.419 30.8006 259.316 32.0325Z" fill="#FFFEFA"/>
<path d="M256.89 29.8525C257.878 29.1665 258.72 28.5921 259.709 27.8972C260.233 27.5345 260.766 27.0559 261.035 26.4526C261.08 26.358 261.115 26.2625 261.142 26.1661C261.197 25.9466 261.217 25.7057 261.236 25.4737C261.256 25.2417 261.276 25.0008 261.25 24.7644C261.241 24.6645 261.222 24.5637 261.194 24.462C261.029 23.8162 260.584 23.251 260.131 22.7839C259.273 21.9174 258.54 21.1891 257.683 20.3137C256.596 19.0291 255.404 17.4643 253.545 17.5524C252.6 17.721 251.631 18.283 251.27 19.4261C251.08 20.0642 251.439 22.1953 251.253 24.408L251.239 24.5686C251.053 26.7813 250.353 28.8089 250.425 29.4726C250.589 30.6671 251.457 31.4086 252.35 31.7567C254.173 32.2137 255.606 30.9055 256.89 29.8525Z" fill="#FFFEFA"/>
</g>
<g clip-path="url(#clip5_344_4313)">
<path d="M20.8697 55.232C20.0935 56.193 20.2542 57.6125 21.2286 58.4027C22.2029 59.1929 23.622 59.0544 24.3981 58.0935C25.1743 57.1325 25.0136 55.713 24.0392 54.9228C23.0649 54.1326 21.6458 54.2711 20.8697 55.232Z" fill="#FFFEFA"/>
<path d="M21.1629 60.6539C20.3867 61.6149 20.5474 63.0344 21.5218 63.8246C22.4961 64.6148 23.9152 64.4763 24.6913 63.5154C25.4675 62.5544 25.3068 61.1348 24.3325 60.3447C23.3581 59.5545 21.939 59.6929 21.1629 60.6539Z" fill="#FFFEFA"/>
<path d="M17.7906 64.8297C17.0144 65.7906 17.1751 67.2102 18.1495 68.0004C19.1238 68.7905 20.5429 68.6521 21.319 67.6911C22.0952 66.7302 21.9345 65.3106 20.9601 64.5204C19.9858 63.7303 18.5667 63.8687 17.7906 64.8297Z" fill="#FFFEFA"/>
<path d="M12.4378 65.6715C11.6617 66.6324 11.8223 68.052 12.7967 68.8422C13.771 69.6323 15.1901 69.4939 15.9662 68.5329C16.7424 67.572 16.5817 66.1524 15.6074 65.3622C14.633 64.5721 13.2139 64.7105 12.4378 65.6715Z" fill="#FFFEFA"/>
<path d="M11.6338 62.5321C12.8427 62.5103 13.867 62.5001 15.0815 62.4714C15.7211 62.4603 16.4338 62.3587 16.9967 62.0088C17.0868 61.9552 17.1698 61.8958 17.2457 61.8307C17.4145 61.6796 17.5663 61.4916 17.7124 61.3107C17.8586 61.1297 18.0103 60.9418 18.1212 60.7322C18.1689 60.6442 18.2096 60.5505 18.2432 60.4511C18.4673 59.8265 18.4123 59.1138 18.2954 58.4777C18.0647 57.2884 17.8611 56.2825 17.636 55.0862C17.4479 53.4248 17.3297 51.4744 15.7285 50.5215C14.8457 50.1396 13.7226 50.0696 12.7815 50.8154C12.2653 51.2376 11.3719 53.1969 9.97781 54.923L9.87662 55.0483C8.48253 56.7743 6.76346 58.064 6.4519 58.6522C5.92015 59.7299 6.2296 60.8217 6.77932 61.6016C8.04467 62.9848 9.97296 62.6941 11.6338 62.5321Z" fill="#FFFEFA"/>
</g>
<defs>
<clipPath id="clip0_344_4313">
<rect width="21.5358" height="21.7735" fill="white" transform="matrix(-0.132323 0.988923 -0.991667 -0.145053 85.6309 55.5117)"/>
</clipPath>
<clipPath id="clip1_344_4313">
<rect width="21.7323" height="21.5147" fill="white" transform="matrix(0.18951 0.984581 -0.981147 0.17863 132.968 40.9199)"/>
</clipPath>
<clipPath id="clip2_344_4313">
<rect width="21.651" height="21.6127" fill="white" transform="matrix(0.530664 0.855632 -0.845668 0.520653 164.667 10.6328)"/>
</clipPath>
<clipPath id="clip3_344_4313">
<rect width="21.7835" height="21.4531" fill="white" transform="matrix(0.0198746 0.99987 -0.9999 0.00549441 223.328 0.964844)"/>
</clipPath>
<clipPath id="clip4_344_4313">
<rect width="21.522" height="21.7913" fill="white" transform="matrix(-0.0837011 0.994958 -0.996751 -0.0974139 271.639 15.6953)"/>
</clipPath>
<clipPath id="clip5_344_4313">
<rect width="21.6366" height="21.6425" fill="white" transform="matrix(-0.62354 0.772013 -0.782572 -0.63464 31.8679 58.9688)"/>
</clipPath>
</defs>
</svg>
