<svg width="58" height="58" viewBox="0 0 58 58" fill="none" xmlns="http://www.w3.org/2000/svg">
<path d="M1 29C1 44.464 13.536 57 29 57C44.464 57 57 44.464 57 29C57 13.536 44.464 1 29 1C13.536 1 1 13.536 1 29Z" fill="#FFFEFA"/>
<path d="M29.0003 51.667C16.5053 51.667 6.33366 41.4953 6.33366 29.0003C6.33366 16.5053 16.5053 6.33366 29.0003 6.33366C41.4953 6.33366 51.667 16.5053 51.667 29.0003C51.667 41.4953 41.4953 51.667 29.0003 51.667ZM29.0003 57.3337C44.6403 57.3337 57.3337 44.6403 57.3337 29.0003C57.3337 13.3603 44.6403 0.666992 29.0003 0.666992C13.3603 0.666992 0.666992 13.3603 0.666992 29.0003C0.666992 44.6403 13.3603 57.3337 29.0003 57.3337ZM26.167 29.0003V40.3337H31.8337V29.0003H40.3337L29.0003 17.667L17.667 29.0003H26.167Z" fill="#FCD11E"/>
</svg>
