<svg width="108" height="108" viewBox="0 0 108 108" fill="none" xmlns="http://www.w3.org/2000/svg">
<path d="M53.9393 0C24.1648 0 0 24.1648 0 53.9393C0 83.7138 24.1648 107.879 53.9393 107.879C83.7138 107.879 107.879 83.7138 107.879 53.9393C107.879 24.1648 83.7138 0 53.9393 0ZM53.9393 16.1818C62.8932 16.1818 70.1211 23.4097 70.1211 32.3636C70.1211 41.3175 62.8932 48.5454 53.9393 48.5454C44.9854 48.5454 37.7575 41.3175 37.7575 32.3636C37.7575 23.4097 44.9854 16.1818 53.9393 16.1818ZM53.9393 92.7756C40.4545 92.7756 28.5339 85.8714 21.5757 75.4072C21.7375 64.6732 43.1515 58.7939 53.9393 58.7939C64.6732 58.7939 86.1411 64.6732 86.3029 75.4072C79.3447 85.8714 67.4241 92.7756 53.9393 92.7756Z" fill="#FF7373"/>
</svg>
