<svg width="118" height="117" viewBox="0 0 118 117" fill="none" xmlns="http://www.w3.org/2000/svg">
<g filter="url(#filter0_d_772_12245)">
<path d="M3 1H59L115 57V113L3 1Z" fill="#B3B3B3"/>
</g>
<g clip-path="url(#clip0_772_12245)">
<path d="M39.6678 11.6676C40.6441 12.6439 42.227 12.6439 43.2033 11.6676C44.1796 10.6912 44.1796 9.10834 43.2033 8.13202C42.227 7.15571 40.6441 7.15571 39.6678 8.13202C38.6915 9.10834 38.6915 10.6912 39.6678 11.6676Z" fill="white"/>
<path d="M45.6775 12.0211C46.6539 12.9974 48.2368 12.9974 49.2131 12.0211C50.1894 11.0448 50.1894 9.46185 49.2131 8.48554C48.2368 7.50923 46.6539 7.50923 45.6775 8.48554C44.7012 9.46185 44.7012 11.0448 45.6775 12.0211Z" fill="white"/>
<path d="M49.9207 16.2633C50.897 17.2396 52.4799 17.2396 53.4562 16.2633C54.4326 15.287 54.4326 13.704 53.4562 12.7277C52.4799 11.7514 50.897 11.7514 49.9207 12.7277C48.9444 13.704 48.9444 15.287 49.9207 16.2633Z" fill="white"/>
<path d="M50.2742 22.274C51.2505 23.2503 52.8334 23.2503 53.8098 22.274C54.7861 21.2977 54.7861 19.7148 53.8098 18.7385C52.8334 17.7622 51.2505 17.7622 50.2742 18.7385C49.2979 19.7148 49.2979 21.2977 50.2742 22.274Z" fill="white"/>
<path d="M46.7245 22.7684C46.8306 21.432 46.9296 20.3006 47.0286 18.9571C47.0851 18.25 47.0498 17.451 46.7245 16.7863C46.675 16.6802 46.6185 16.5812 46.5548 16.4893C46.4063 16.2843 46.2154 16.0933 46.0316 15.9095C45.8477 15.7256 45.6568 15.5347 45.4376 15.3862C45.3457 15.3226 45.2467 15.266 45.1406 15.2165C44.4759 14.8913 43.684 14.863 42.9698 14.9125C41.6334 15.0185 40.502 15.1175 39.1585 15.2165C37.3059 15.2165 35.1421 15.1034 33.9188 16.7509C33.4026 17.6773 33.2046 18.9076 33.9259 20.039C34.336 20.6612 36.4008 21.8916 38.1544 23.6452L38.2817 23.7725C40.0353 25.5261 41.2727 27.5838 41.8879 28.001C43.0193 28.7223 44.2567 28.5172 45.176 28.0081C46.8377 26.7848 46.7245 24.621 46.7245 22.7684Z" fill="white"/>
</g>
<path d="M63.0738 23.9114L64.6153 25.4529L63.2011 26.8671C60.5989 29.4693 57.1907 30.5299 53.8248 28.8894L54.2915 26.4146C57.2189 27.9278 59.8918 27.0934 61.6596 25.3256L63.0738 23.9114ZM63.4415 24.2791L64.9688 25.8065L63.5405 27.2348C61.9 28.8753 61.1505 31.4067 62.5647 34.2069L60.1464 34.7019C58.52 31.4633 59.5524 28.1682 62.0131 25.7075L63.4415 24.2791ZM69.367 28.5925L71.2479 30.4734L61.6737 40.0476L59.7928 38.1667L69.367 28.5925ZM66.9205 33.7261L69.1973 36.0029L67.6417 37.5586L65.3648 35.2817L66.9205 33.7261ZM51.4348 33.4008L60.3444 42.3103L58.8453 43.8094L49.9357 34.8999L51.4348 33.4008ZM54.136 30.6996L56.031 32.5947L52.5379 36.0878L50.6429 34.1927L54.136 30.6996ZM73.7217 38.0949L75.1218 39.4949L74.7117 39.9051C72.6186 41.9981 69.8892 43.0305 67.0749 41.7435L67.5982 39.4949C69.8609 40.5415 71.9115 39.9051 73.3116 38.505L73.7217 38.0949ZM74.1036 38.4767L75.4895 39.8626L75.0794 40.2728C73.7641 41.588 73.2267 43.5679 74.3015 45.774L72.0812 46.3256C70.7236 43.5537 71.6852 40.895 73.6934 38.8868L74.1036 38.4767ZM72.8308 34.9977L78.5725 40.7394L77.1017 42.2102L71.36 36.4685L72.8308 34.9977ZM76.1683 35.6483L77.9361 37.416L75.9137 39.4384L74.146 37.6706L76.1683 35.6483ZM83.3101 42.5638L85.092 44.3457L77.0734 52.3643L75.2915 50.5824L83.3101 42.5638ZM78.4735 44.2608L80.5524 46.3397L79.0533 47.8388L76.9744 45.7599L78.4735 44.2608ZM80.3827 40.0323L82.1363 41.786L74.3723 49.55L72.6186 47.7964L80.3827 40.0323ZM67.5275 43.9214L76.5219 52.9158L72.0105 57.4272L70.1438 55.5604L73.156 52.5481L66.0284 45.4205L67.5275 43.9214ZM84.6383 54.4704L86.5192 56.3513L84.5393 58.3312L82.6584 56.4503L84.6383 54.4704ZM90.3376 50.6096C92.2327 52.5046 92.5155 54.9653 90.9316 56.5493C89.376 58.1049 86.9152 57.822 85.0202 55.927C83.1251 54.032 82.8423 51.5712 84.3979 50.0156C85.9818 48.4317 88.4426 48.7145 90.3376 50.6096ZM88.9234 52.0238C88.0324 51.1328 86.9576 50.9631 86.1515 51.7692C85.3596 52.5612 85.5293 53.636 86.4202 54.5269C87.3253 55.432 88.386 55.5876 89.178 54.7956C89.9841 53.9895 89.8285 52.9289 88.9234 52.0238ZM95.4571 54.7108L97.338 56.5917L87.3536 66.576L85.4727 64.6951L95.4571 54.7108ZM92.5721 60.0282L94.8772 62.3334L93.3358 63.8749L91.0306 61.5697L92.5721 60.0282ZM77.2561 59.1938L86.4344 68.3721L84.9212 69.8853L75.7429 60.707L77.2561 59.1938ZM79.4765 56.9735L81.3715 58.8686L78.5006 61.7394L76.6056 59.8444L79.4765 56.9735ZM78.8259 54.6542L80.1129 52.943C82.3332 55.1633 85.4162 58.218 88.3577 60.4242L87.1415 61.895C84.0019 59.7454 80.9897 56.818 78.8259 54.6542ZM95.3428 69.8418L97.1813 71.6802L94.0983 74.7632L92.2598 72.9247L95.3428 69.8418ZM99.5006 73.9713L101.339 75.8097L98.242 78.9069L96.4035 77.0684L99.5006 73.9713ZM89.8557 69.3326L101.707 81.1837L100.179 82.7111L88.3283 70.86L89.8557 69.3326ZM100.462 61.3848L109.655 70.5771L105.313 74.9188L98.0157 67.6214L95.7954 69.8418L93.9286 67.975L97.6197 64.2839L104.917 71.5812L106.303 70.1953L98.9774 62.8697L100.462 61.3848ZM94.7206 67.183L104.182 76.6441L102.668 78.1573L93.2074 68.6962L94.7206 67.183Z" fill="white"/>
<defs>
<filter id="filter0_d_772_12245" x="0.5" y="0" width="117" height="117" filterUnits="userSpaceOnUse" color-interpolation-filters="sRGB">
<feFlood flood-opacity="0" result="BackgroundImageFix"/>
<feColorMatrix in="SourceAlpha" type="matrix" values="0 0 0 0 0 0 0 0 0 0 0 0 0 0 0 0 0 0 127 0" result="hardAlpha"/>
<feOffset dy="1.5"/>
<feGaussianBlur stdDeviation="1.25"/>
<feComposite in2="hardAlpha" operator="out"/>
<feColorMatrix type="matrix" values="0 0 0 0 0 0 0 0 0 0 0 0 0 0 0 0 0 0 0.25 0"/>
<feBlend mode="normal" in2="BackgroundImageFix" result="effect1_dropShadow_772_12245"/>
<feBlend mode="normal" in="SourceGraphic" in2="effect1_dropShadow_772_12245" result="shape"/>
</filter>
<clipPath id="clip0_772_12245">
<rect width="24" height="24" fill="white" transform="translate(44.9707) rotate(45)"/>
</clipPath>
</defs>
</svg>
